<svg width="10" height="10" fill="none" xmlns="http://www.w3.org/2000/svg"><g clip-path="url(#prefix__clip0_610_115)"><path d="M5 9.5c-.944 0-1.618 0-2.145-.048-.52-.047-.846-.137-1.105-.287a2.5 2.5 0 01-.915-.915c-.15-.26-.24-.586-.287-1.105C.5 6.618.5 5.944.5 5s0-1.618.048-2.145c.047-.52.137-.846.287-1.105A2.5 2.5 0 011.75.835c.26-.15.586-.24 1.105-.287C3.382.5 4.056.5 5 .5s1.618 0 2.145.048c.52.047.846.137 1.105.287.38.22.696.535.915.915.15.26.24.586.287 1.105C9.5 3.382 9.5 4.056 9.5 5s0 1.618-.048 2.145c-.047.52-.137.846-.287 1.105a2.5 2.5 0 01-.915.915c-.26.15-.586.24-1.105.287C6.618 9.5 5.944 9.5 5 9.5z" fill="url(#prefix__paint0_linear_610_115)" stroke="#29232B"/><g filter="url(#prefix__filter0_dd_610_115)" fill="#fff"><path d="M4 7.5H3v-2H2v-1h1c0-1 1-2 2-2v1c-1 0-1 1-1 1h2v1c0 .5.5 1 1 1v1c-1 0-2-1-2-2H4v2zM7 2.5H6v1h1v-1z"/></g></g><defs><linearGradient id="prefix__paint0_linear_610_115" x1="5" y1="0" x2="9.375" y2="12.5" gradientUnits="userSpaceOnUse"><stop offset=".051" stop-color="#73417B"/><stop offset=".598" stop-color="#D581C7"/></linearGradient><clipPath id="prefix__clip0_610_115"><path fill="#fff" d="M0 0h10v10H0z"/></clipPath><filter id="prefix__filter0_dd_610_115" x="-2" y="2.5" width="13" height="13" filterUnits="userSpaceOnUse" color-interpolation-filters="sRGB"><feFlood flood-opacity="0" result="BackgroundImageFix"/><feColorMatrix in="SourceAlpha" values="0 0 0 0 0 0 0 0 0 0 0 0 0 0 0 0 0 0 127 0" result="hardAlpha"/><feOffset dx="1"/><feComposite in2="hardAlpha" operator="out"/><feColorMatrix values="0 0 0 0 0 0 0 0 0 0 0 0 0 0 0 0 0 0 0.2 0"/><feBlend in2="BackgroundImageFix" result="effect1_dropShadow_610_115"/><feColorMatrix in="SourceAlpha" values="0 0 0 0 0 0 0 0 0 0 0 0 0 0 0 0 0 0 127 0" result="hardAlpha"/><feOffset dy="4"/><feGaussianBlur stdDeviation="2"/><feComposite in2="hardAlpha" operator="out"/><feColorMatrix values="0 0 0 0 0 0 0 0 0 0 0 0 0 0 0 0 0 0 0.25 0"/><feBlend in2="effect1_dropShadow_610_115" result="effect2_dropShadow_610_115"/><feBlend in="SourceGraphic" in2="effect2_dropShadow_610_115" result="shape"/></filter></defs></svg>